<?xml version="1.0" encoding="UTF-8" standalone="no"?>
<!-- Created with Inkscape (http://www.inkscape.org/) -->

<svg
   xmlns:dc="http://purl.org/dc/elements/1.1/"
   xmlns:cc="http://creativecommons.org/ns#"
   xmlns:rdf="http://www.w3.org/1999/02/22-rdf-syntax-ns#"
   xmlns:svg="http://www.w3.org/2000/svg"
   xmlns="http://www.w3.org/2000/svg"
   xmlns:sodipodi="http://sodipodi.sourceforge.net/DTD/sodipodi-0.dtd"
   xmlns:inkscape="http://www.inkscape.org/namespaces/inkscape"
   width="145mm"
   height="78mm"
   viewBox="0 0 145 78"
   version="1.1"
   id="svg1624"
   inkscape:version="0.92.4 (5da689c313, 2019-01-14)"
   sodipodi:docname="white_medium_visonary_logo.svg">
  <defs
     id="defs1618" />
  <sodipodi:namedview
     id="base"
     pagecolor="#ffffff"
     bordercolor="#666666"
     borderopacity="1.0"
     inkscape:pageopacity="0.0"
     inkscape:pageshadow="2"
     inkscape:zoom="1.4"
     inkscape:cx="192.45557"
     inkscape:cy="35.996128"
     inkscape:document-units="mm"
     inkscape:current-layer="layer1"
     showgrid="false"
     inkscape:window-width="1920"
     inkscape:window-height="1001"
     inkscape:window-x="-9"
     inkscape:window-y="-9"
     inkscape:window-maximized="1" />
  <metadata
     id="metadata1621">
    <rdf:RDF>
      <cc:Work
         rdf:about="">
        <dc:format>image/svg+xml</dc:format>
        <dc:type
           rdf:resource="http://purl.org/dc/dcmitype/StillImage" />
        <dc:title></dc:title>
      </cc:Work>
    </rdf:RDF>
  </metadata>
  <g
     inkscape:label="Layer 1"
     inkscape:groupmode="layer"
     id="layer1"
     transform="translate(0,-219)">
    <g
       id="g2395"
       transform="matrix(3.7641604,0,0,4.5099254,-124.45472,-732.49208)"
       style="fill:#8978a7;fill-opacity:1">
      <g
         id="g2349"
         transform="matrix(-1,0,0,1,79.948023,0)"
         style="fill:#8978a7;fill-opacity:1">
        <g
           id="g2335"
           transform="matrix(0.65829218,0,0,0.70044068,-82.467939,94.694399)"
           style="fill:#8978a7;fill-opacity:1">
          <path
             sodipodi:nodetypes="cccccc"
             inkscape:connector-curvature="0"
             id="path2333"
             d="m 193.10085,176.54406 0.78197,0.40813 c 0.43008,0.22448 0.77143,0.42553 0.75855,0.4468 l -2.88971,6.52249 -1.09645,-1.424 z"
             style="opacity:1;fill:#8978a7;fill-opacity:1;fill-rule:nonzero;stroke:none;stroke-width:2.44078112;stroke-miterlimit:4;stroke-dasharray:none" />
        </g>
        <path
           inkscape:connector-curvature="0"
           id="path2337"
           d="m 35.319328,216.81813 c -0.14593,-0.23044 -1.921,-3.40882 -1.90961,-3.41926 0.007,-0.006 0.75739,-0.48754 1.66841,-1.06997 l 1.65641,-1.05898 0.82406,1.46591 c 0.45323,0.80625 0.90153,1.6048 0.9962,1.77455 l 0.17214,0.30863 -1.62778,1.03944 c -0.89528,0.57169 -1.64643,1.04607 -1.66922,1.05418 -0.0228,0.008 -0.0726,-0.0344 -0.11061,-0.0945 z"
           style="opacity:1;fill:#8978a7;fill-opacity:1;fill-rule:nonzero;stroke:none;stroke-width:1.72589278;stroke-miterlimit:4;stroke-dasharray:none" />
        <path
           inkscape:connector-curvature="0"
           id="path2339"
           d="m 33.996412,212.5848 c 0,-0.10477 0.57018,-0.65196 0.85674,-0.82219 0.30907,-0.1836 0.87696,-0.38468 1.00752,-0.35674 0.0404,0.009 -0.34293,0.28148 -0.85185,0.6063 -1.00379,0.64068 -1.01241,0.64556 -1.01241,0.57263 z"
           style="opacity:1;fill:#8978a7;fill-opacity:1;fill-rule:nonzero;stroke:none;stroke-width:1.72589278;stroke-miterlimit:4;stroke-dasharray:none" />
        <path
           inkscape:connector-curvature="0"
           id="path2341"
           d="m 37.90917,219.98483 c -0.97807,-1.61251 -1.78744,-2.95629 -1.79858,-2.98616 -0.0167,-0.0448 0.68743,-0.51109 2.41115,-1.59689 l 0.19869,-0.12516 1.77957,2.8925 c 0.97876,1.59088 1.77957,2.90745 1.77957,2.92572 0,0.0183 -0.0506,0.0524 -0.11233,0.0759 -0.0618,0.0235 -0.645,0.42593 -1.29604,0.89432 l -1.1837,0.85161 z"
           style="opacity:1;fill:#8978a7;fill-opacity:1;fill-rule:nonzero;stroke:none;stroke-width:1.72589278;stroke-miterlimit:4;stroke-dasharray:none" />
        <path
           sodipodi:nodetypes="ccccc"
           inkscape:connector-curvature="0"
           id="path2343"
           d="m 44.176757,217.83071 0.26525,-0.28685 2.096353,1.179 -0.23162,0.29516 z"
           style="opacity:1;fill:#8978a7;fill-opacity:1;fill-rule:nonzero;stroke:none;stroke-width:1.72589278;stroke-miterlimit:4;stroke-dasharray:none" />
        <path
           sodipodi:nodetypes="ccccccc"
           inkscape:connector-curvature="0"
           id="path2345"
           d="m 41.51405,224.57721 -1.16712,-1.74122 0.81277,-0.56356 c 0.44702,-0.30995 0.8379,-0.5782 0.86864,-0.5961 0,0 2.354602,3.0829 2.39636,3.30707 0.004,0.0418 -1.68861,1.34715 -1.73345,1.33725 -0.006,-0.001 -0.53529,-0.78577 -1.1772,-1.74344 z"
           style="opacity:1;fill:#8978a7;fill-opacity:1;fill-rule:nonzero;stroke:none;stroke-width:1.72589278;stroke-miterlimit:4;stroke-dasharray:none" />
        <path
           inkscape:connector-curvature="0"
           id="path2347"
           d="m 42.10289,227.98967 c -0.0335,-0.0347 -0.0355,-0.0376 -0.20799,-0.30203 -0.14144,-0.21681 -0.17345,-0.26768 -0.17034,-0.27067 0.008,-0.007 4.0645,-2.80209 4.07892,-2.80996 0.0138,-0.008 0.0154,-0.008 0.0236,-0.004 0.005,0.002 0.0125,0.007 0.017,0.0109 0.005,0.004 0.0779,0.10695 0.16305,0.22957 0.15581,0.22435 0.16079,0.2323 0.15277,0.24376 -0.002,0.003 -4.0086,2.92841 -4.01903,2.93468 -0.003,0.002 -0.013,-0.006 -0.0381,-0.0325 z"
           style="opacity:1;fill:#8978a7;fill-opacity:1;fill-rule:nonzero;stroke:none;stroke-width:0.1078683;stroke-miterlimit:4;stroke-dasharray:none" />
      </g>
      <g
         id="g2379"
         transform="matrix(0.46996031,0,0,0.46094159,3.5513666,132.7471)"
         style="fill:#8978a7;fill-opacity:1">
        <g
           id="g2377"
           transform="matrix(1.3361347,0,0,1.3138716,-31.230927,-49.149723)"
           style="fill:#8978a7;fill-opacity:1">
          <path
             sodipodi:nodetypes="cccc"
             style="opacity:1;fill:#8978a7;fill-opacity:1;fill-rule:nonzero;stroke:none;stroke-width:2.44078112;stroke-miterlimit:4;stroke-dasharray:none"
             d="m 89.164583,191.43125 h 2.645834 l -1.322917,2.91042 z"
             id="path2351"
             inkscape:connector-curvature="0" />
          <g
             id="g2361"
             style="fill:#8978a7;fill-opacity:1">
            <path
               inkscape:connector-curvature="0"
               id="path2353"
               d="m 87.506517,188.33367 c -0.68591,-1.39885 -1.2451,-2.56398 -1.24263,-2.58917 0.002,-0.0252 0.38633,-0.36485 0.85303,-0.75479 l 0.84856,-0.70898 1.11931,2.27919 1.1193,2.27919 -0.001,1.01896 -10e-4,1.01897 h -0.724 -0.724 z"
               style="opacity:1;fill:#8978a7;fill-opacity:1;fill-rule:nonzero;stroke:none;stroke-width:2.44078112;stroke-miterlimit:4;stroke-dasharray:none" />
            <g
               id="g2359"
               style="fill:#8978a7;fill-opacity:1">
              <path
                 style="opacity:1;fill:#8978a7;fill-opacity:1;fill-rule:nonzero;stroke:none;stroke-width:2.44078112;stroke-miterlimit:4;stroke-dasharray:none"
                 d="m 85.630697,185.20735 c -0.0187,-0.0302 -0.3178,-0.7224 -0.6647,-1.53818 l -0.63074,-1.48324 1.0608,-0.89961 c 0.58344,-0.49479 1.08403,-0.89907 1.11242,-0.8984 0.0284,7.9e-4 0.34098,0.68143 0.69465,1.51282 l 0.64305,1.51162 -0.20874,0.1791 c -1.28808,1.10522 -1.97868,1.66131 -2.00674,1.61589 z"
                 id="path2355"
                 inkscape:connector-curvature="0" />
              <path
                 style="opacity:1;fill:#8978a7;fill-opacity:1;fill-rule:nonzero;stroke:none;stroke-width:0.86294639;stroke-miterlimit:4;stroke-dasharray:none"
                 d="m 84.666747,181.45575 c 0.23361,-0.42285 0.50313,-0.69965 0.847,-0.86987 0.23563,-0.11664 0.47165,-0.19115 0.45665,-0.14417 -0.0101,0.0317 -1.3418,1.16894 -1.372,1.1717 -0.0109,0.001 0.0199,-0.07 0.0683,-0.15766 z"
                 id="path2357"
                 inkscape:connector-curvature="0" />
            </g>
          </g>
          <path
             style="opacity:1;fill:#8978a7;fill-opacity:1;fill-rule:nonzero;stroke:none;stroke-width:2.44078112;stroke-miterlimit:4;stroke-dasharray:none"
             d="m 96.253567,188.35871 c -0.68591,-1.39885 -1.2451,-2.56398 -1.24263,-2.58917 0.002,-0.0252 0.38633,-0.36485 0.85303,-0.75479 l 0.84856,-0.70898 1.11931,2.27919 1.119297,2.27919 -10e-4,1.01896 -0.001,1.01897 h -0.724 -0.723997 z"
             id="path2363"
             inkscape:connector-curvature="0" />
          <path
             style="opacity:1;fill:#8978a7;fill-opacity:1;fill-rule:nonzero;stroke:none;stroke-width:2.44078112;stroke-miterlimit:4;stroke-dasharray:none"
             d="m 93.45166,188.35547 c 0.68591,-1.39885 1.2451,-2.56398 1.24263,-2.58917 -0.002,-0.0252 -0.38633,-0.36485 -0.85303,-0.75479 l -0.84856,-0.70898 -1.11931,2.27919 -1.119297,2.27919 0.001,1.01896 0.001,1.01897 h 0.724 0.723997 z"
             id="path2365"
             inkscape:connector-curvature="0" />
          <path
             style="opacity:1;fill:#8978a7;fill-opacity:1;fill-rule:nonzero;stroke:none;stroke-width:2.44078112;stroke-miterlimit:4;stroke-dasharray:none"
             d="m 87.506517,188.33367 c -0.68591,-1.39885 -1.2451,-2.56398 -1.24263,-2.58917 0.002,-0.0252 0.38633,-0.36485 0.85303,-0.75479 l 0.84856,-0.70898 1.11931,2.27919 1.1193,2.27919 -0.001,1.01896 -10e-4,1.01897 h -0.724 -0.724 z"
             id="path2367"
             inkscape:connector-curvature="0"
             transform="matrix(-1,0,0,1,189.68943,0.02593287)" />
          <path
             inkscape:connector-curvature="0"
             id="path2369"
             d="m 85.630697,185.20735 c -0.0187,-0.0302 -0.3178,-0.7224 -0.6647,-1.53818 l -0.63074,-1.48324 1.0608,-0.89961 c 0.58344,-0.49479 1.08403,-0.89907 1.11242,-0.8984 0.0284,7.9e-4 0.34098,0.68143 0.69465,1.51282 l 0.64305,1.51162 -0.20874,0.1791 c -1.28808,1.10522 -1.97868,1.66131 -2.00674,1.61589 z"
             style="opacity:1;fill:#8978a7;fill-opacity:1;fill-rule:nonzero;stroke:none;stroke-width:2.44078112;stroke-miterlimit:4;stroke-dasharray:none"
             transform="matrix(-1,0,0,1,189.68943,0.02593287)" />
          <path
             inkscape:connector-curvature="0"
             id="path2371"
             d="m 84.666747,181.45575 c 0.23361,-0.42285 0.50313,-0.69965 0.847,-0.86987 0.23563,-0.11664 0.47165,-0.19115 0.45665,-0.14417 -0.0101,0.0317 -1.3418,1.16894 -1.372,1.1717 -0.0109,0.001 0.0199,-0.07 0.0683,-0.15766 z"
             style="opacity:1;fill:#8978a7;fill-opacity:1;fill-rule:nonzero;stroke:none;stroke-width:0.86294639;stroke-miterlimit:4;stroke-dasharray:none"
             transform="matrix(-1,0,0,1,189.68943,0.02593287)" />
          <path
             inkscape:connector-curvature="0"
             id="path2373"
             d="m 97.895833,191.43125 h 2.645837 l -1.32292,2.91042 z"
             style="opacity:1;fill:#8978a7;fill-opacity:1;fill-rule:nonzero;stroke:none;stroke-width:2.44078112;stroke-miterlimit:4;stroke-dasharray:none"
             sodipodi:nodetypes="cccc" />
          <path
             sodipodi:nodetypes="cccccc"
             inkscape:connector-curvature="0"
             id="path2375"
             d="m 94.720832,184.81667 h 0.264583 l 0.264584,-0.26459 1.058334,-1.05833 h -2.910416 l 1.322915,1.32292"
             style="fill:#8978a7;fill-opacity:1;stroke:none;stroke-width:0.26458332px;stroke-linecap:butt;stroke-linejoin:miter;stroke-opacity:1" />
        </g>
      </g>
      <text
         transform="scale(1.171251,0.85378795)"
         id="text2383"
         y="267.08469"
         x="45.38184"
         style="font-style:normal;font-variant:normal;font-weight:normal;font-stretch:normal;font-size:4.53083611px;line-height:1.25;font-family:SimSun-ExtB;-inkscape-font-specification:SimSun-ExtB;letter-spacing:0px;word-spacing:0px;fill:#8978a7;fill-opacity:1;stroke:none;stroke-width:0.11327088"
         xml:space="preserve"><tspan
           style="font-style:normal;font-variant:normal;font-weight:normal;font-stretch:normal;font-family:SimSun-ExtB;-inkscape-font-specification:SimSun-ExtB;fill:#8978a7;fill-opacity:1;stroke-width:0.11327088"
           y="267.08469"
           x="45.38184"
           id="tspan2381"
           sodipodi:role="line">ebsites</tspan></text>
      <g
         id="g2393"
         transform="matrix(0.44187096,0,0,0.45251893,11.357655,164.837)"
         style="fill:#8978a7;fill-opacity:1">
        <g
           transform="rotate(66.053058,89.641028,132.55176)"
           id="g2391"
           style="fill:#8978a7;fill-opacity:1">
          <g
             id="g2385"
             style="fill:#8978a7;fill-opacity:1" />
          <text
             transform="rotate(-66.053057)"
             id="text2389"
             y="122.92387"
             x="-97.622696"
             style="font-style:normal;font-variant:normal;font-weight:normal;font-stretch:normal;font-size:10.58333302px;line-height:1.25;font-family:SimSun-ExtB;-inkscape-font-specification:SimSun-ExtB;letter-spacing:0px;word-spacing:0px;fill:#8978a7;fill-opacity:1;stroke:none;stroke-width:0.26458332"
             xml:space="preserve"><tspan
               style="font-style:normal;font-variant:normal;font-weight:normal;font-stretch:normal;font-family:SimSun-ExtB;-inkscape-font-specification:SimSun-ExtB;fill:#8978a7;fill-opacity:1;stroke-width:0.26458332"
               y="122.92387"
               x="-97.622696"
               id="tspan2387"
               sodipodi:role="line">isionary</tspan></text>
        </g>
      </g>
    </g>
    <path
       style="opacity:1;fill:#ffffff;fill-opacity:1;fill-rule:nonzero;stroke:#000000;stroke-width:0.19089498;stroke-linecap:square;stroke-linejoin:round;stroke-miterlimit:4;stroke-dasharray:none;stroke-opacity:1;paint-order:stroke fill markers"
       d="M 153.97961,94.130834 C 131.27716,77.000157 116.65718,65.678352 116.64296,65.217086 c -0.016,-0.520415 27.15812,-58.8144286 27.71225,-59.4483302 0.2538,-0.2903269 44.25873,33.0315132 46.41895,35.1498092 0.53336,0.523004 -0.78547,3.754705 -7.15001,17.52067 -12.11003,26.192958 -19.71961,42.040015 -20.27301,42.218815 -0.27779,0.0897 -4.49498,-2.847498 -9.37153,-6.527216 z"
       id="path47"
       inkscape:connector-curvature="0"
       transform="matrix(0.26458333,0,0,0.26458333,0,219)" />
    <path
       style="opacity:1;fill:#ffffff;fill-opacity:1;fill-rule:nonzero;stroke:#000000;stroke-width:0.19089498;stroke-linecap:square;stroke-linejoin:round;stroke-miterlimit:4;stroke-dasharray:none;stroke-opacity:1;paint-order:stroke fill markers"
       d="M 173.37038,20.704372 C 163.36104,13.055469 156.95989,7.8003683 157.27202,7.4882337 c 0.3931,-0.3931037 5.59986,1.5516414 9.43221,3.5229683 4.40183,2.26426 8.60636,5.872411 12.65395,10.859077 3.04904,3.756452 4.25001,5.718625 3.50015,5.718625 -0.26338,0 -4.53295,-3.09804 -9.48795,-6.884532 z"
       id="path49"
       inkscape:connector-curvature="0"
       transform="matrix(0.26458333,0,0,0.26458333,0,219)" />
    <path
       style="opacity:1;fill:#ffffff;fill-opacity:1;fill-rule:nonzero;stroke:#000000;stroke-width:0.19089498;stroke-linecap:square;stroke-linejoin:round;stroke-miterlimit:4;stroke-dasharray:none;stroke-opacity:1;paint-order:stroke fill markers"
       d="M 93.90315,195.94409 C 86.165026,189.18104 69.610133,175.25948 66.979861,173.30341 l -1.358325,-1.01015 11.517232,-22.4759 c 6.334478,-12.36174 17.717838,-34.57608 25.296352,-49.3652 l 13.77913,-26.889305 10.43646,7.921823 c 13.21785,10.033042 23.72823,18.357874 25.27114,20.016222 l 1.19762,1.28722 -25.2301,49.87655 c -13.87656,27.43211 -25.43878,49.9317 -25.69382,49.9991 -0.25505,0.0674 -3.986625,-2.95646 -8.2924,-6.71968 z"
       id="path51"
       inkscape:connector-curvature="0"
       transform="matrix(0.26458333,0,0,0.26458333,0,219)" />
    <path
       style="opacity:1;fill:#ffffff;fill-opacity:1;fill-rule:nonzero;stroke:#000000;stroke-width:0.19089498;stroke-linecap:square;stroke-linejoin:round;stroke-miterlimit:4;stroke-dasharray:none;stroke-opacity:1;paint-order:stroke fill markers"
       d="M 44.177771,212.40501 C 44.03421,212.01132 37.99238,194.64288 30.751482,173.80849 l -13.165269,-37.88073 1.604726,-1.26269 c 0.882599,-0.69448 4.00777,-2.9146 6.944823,-4.93362 3.759925,-2.58467 5.440035,-3.4814 5.677827,-3.03045 0.18575,0.35226 5.36578,16.25641 11.511179,35.34256 l 11.173451,34.70209 -4.615585,7.72431 c -5.241364,8.77158 -5.346496,8.91781 -5.704863,7.93505 z"
       id="path53"
       inkscape:connector-curvature="0"
       transform="matrix(0.26458333,0,0,0.26458333,0,219)" />
    <path
       style="opacity:1;fill:#ffffff;fill-opacity:1;fill-rule:nonzero;stroke:#000000;stroke-width:0.19089498;stroke-linecap:square;stroke-linejoin:round;stroke-miterlimit:4;stroke-dasharray:none;stroke-opacity:1;paint-order:stroke fill markers"
       d=""
       id="path55"
       inkscape:connector-curvature="0"
       transform="matrix(0.26458333,0,0,0.26458333,0,219)" />
    <path
       style="opacity:1;fill:#ffffff;fill-opacity:1;fill-rule:nonzero;stroke:#000000;stroke-width:0.19089498;stroke-linecap:square;stroke-linejoin:round;stroke-miterlimit:4;stroke-dasharray:none;stroke-opacity:1;paint-order:stroke fill markers"
       d="m 6.820733,134.63982 c -0.7516925,-1.13588 -1.2962166,-2.26706 -1.2100534,-2.51372 0.1775703,-0.50833 28.5811424,-19.69557 29.1090414,-19.66379 0.188123,0.0113 1.048586,0.97728 1.91214,2.14657 l 1.570097,2.12599 -13.691927,9.12968 c -7.530561,5.02132 -14.283826,9.51462 -15.0072563,9.9851 -1.3101603,0.85205 -1.3206976,0.8473 -2.6820417,-1.20983 z"
       id="path57"
       inkscape:connector-curvature="0"
       transform="matrix(0.26458333,0,0,0.26458333,0,219)" />
    <path
       style="opacity:1;fill:#ffffff;fill-opacity:1;fill-rule:nonzero;stroke:#000000;stroke-width:0.19089498;stroke-linecap:square;stroke-linejoin:round;stroke-miterlimit:4;stroke-dasharray:none;stroke-opacity:1;paint-order:stroke fill markers"
       d="m 56.684493,258.85155 c -5.875281,-5.03565 -21.370191,-19.76713 -21.370191,-20.31729 0,-0.33331 1.960705,-4.00968 4.357123,-8.1697 4.717821,-8.18982 28.22017,-46.09087 29.160737,-47.02604 0.428556,-0.4261 3.401725,1.78169 11.686467,8.67802 6.111422,5.08723 11.309516,9.56115 11.551316,9.94203 0.305465,0.48117 -4.221518,9.00829 -14.833129,27.94001 -18.839113,33.61004 -17.359612,31.02704 -17.774403,31.03167 -0.191449,0.002 -1.441513,-0.93327 -2.77792,-2.0787 z"
       id="path59"
       inkscape:connector-curvature="0"
       transform="matrix(0.26458333,0,0,0.26458333,0,219)" />
    <path
       style="opacity:1;fill:#ffffff;fill-opacity:1;fill-rule:nonzero;stroke:#000000;stroke-width:0.19089498;stroke-linecap:square;stroke-linejoin:round;stroke-miterlimit:4;stroke-dasharray:none;stroke-opacity:1;paint-order:stroke fill markers"
       d="m 39.102374,265.40134 c -15.556349,-13.61757 -28.367601,-24.84147 -28.469448,-24.942 -0.400813,-0.39563 4.260986,-7.79132 4.788422,-7.59657 0.30945,0.11426 13.435706,10.83251 29.16946,23.81835 l 28.606826,23.61061 -2.32428,4.33707 c -1.278353,2.38539 -2.585824,4.60588 -2.905492,4.93441 -0.443245,0.45555 -7.295372,-5.28003 -28.865488,-24.16187 z"
       id="path61"
       inkscape:connector-curvature="0"
       transform="matrix(0.26458333,0,0,0.26458333,0,219)" />
    <path
       style="opacity:1;fill:#ffffff;fill-opacity:1;fill-rule:nonzero;stroke:#000000;stroke-width:0.19089498;stroke-linecap:square;stroke-linejoin:round;stroke-miterlimit:4;stroke-dasharray:none;stroke-opacity:1;paint-order:stroke fill markers"
       d="m 135.87678,190.60227 c -0.23527,-0.62503 -2.401,-6.4776 -4.81273,-13.00571 -2.41172,-6.52811 -4.73823,-12.81856 -5.17002,-13.97878 -0.43178,-1.16021 -0.70373,-2.2983 -0.60434,-2.52908 0.0994,-0.23078 4.36029,-4.48112 9.46863,-9.4452 6.71401,-6.52439 9.39444,-8.83285 9.67234,-8.33006 0.74214,1.34275 11.0918,29.29613 11.0918,29.95782 0,0.75555 -17.95772,18.46743 -18.72375,18.46743 -0.27179,0 -0.68665,-0.51139 -0.92193,-1.13642 z"
       id="path63"
       inkscape:connector-curvature="0"
       transform="matrix(0.26458333,0,0,0.26458333,0,219)" />
    <path
       style="opacity:1;fill:#ffffff;fill-opacity:1;fill-rule:nonzero;stroke:#000000;stroke-width:0.09544749;stroke-linecap:square;stroke-linejoin:round;stroke-miterlimit:4;stroke-dasharray:none;stroke-opacity:1;paint-order:stroke fill markers"
       d="m 127.53566,154.34157 c 0,-0.0863 0.35432,-0.86401 0.78739,-1.72815 1.94009,-3.87128 4.75919,-6.83782 8.07515,-8.49751 1.1303,-0.56573 2.23964,-1.0286 2.46522,-1.0286 0.22558,0 -1.69109,2.11005 -4.25926,4.689 -4.46819,4.48695 -7.0685,6.90213 -7.0685,6.56526 z"
       id="path65"
       inkscape:connector-curvature="0"
       transform="matrix(0.26458333,0,0,0.26458333,0,219)" />
    <path
       style="opacity:1;fill:#ffffff;fill-opacity:1;fill-rule:nonzero;stroke:#000000;stroke-width:0.09544749;stroke-linecap:square;stroke-linejoin:round;stroke-miterlimit:4;stroke-dasharray:none;stroke-opacity:1;paint-order:stroke fill markers"
       d="m 160.38222,241.51405 c -15.2432,-35.90744 -18.27032,-43.25707 -18.07276,-43.87951 0.13932,-0.43896 14.26928,-14.43416 14.7183,-14.57793 0.0996,-0.0319 4.64158,10.45109 10.09325,23.29553 l 9.91212,23.35352 v 10.48145 10.48145 h -6.38234 -6.38235 z"
       id="path67"
       inkscape:connector-curvature="0"
       transform="matrix(0.26458333,0,0,0.26458333,0,219)" />
    <path
       style="opacity:1;fill:#ffffff;fill-opacity:1;fill-rule:nonzero;stroke:#000000;stroke-width:0.09544749;stroke-linecap:square;stroke-linejoin:round;stroke-miterlimit:4;stroke-dasharray:none;stroke-opacity:1;paint-order:stroke fill markers"
       d="m 182.08389,240.5807 v -10.34891 l 9.88869,-23.30606 c 5.43877,-12.81832 9.9689,-23.39845 10.06694,-23.51138 0.19045,-0.21937 11.9996,11.04673 13.96289,13.32081 l 1.17198,1.3575 -1.73013,4.26088 c -1.86175,4.58503 -8.93437,21.38807 -16.03139,38.08722 l -4.40041,10.35407 -6.46428,0.0674 -6.46429,0.0674 z"
       id="path69"
       inkscape:connector-curvature="0"
       transform="matrix(0.26458333,0,0,0.26458333,0,219)" />
    <path
       style="opacity:1;fill:#ffffff;fill-opacity:1;fill-rule:nonzero;stroke:#000000;stroke-width:0.09544749;stroke-linecap:square;stroke-linejoin:round;stroke-miterlimit:4;stroke-dasharray:none;stroke-opacity:1;paint-order:stroke fill markers"
       d="m 211.75519,181.40997 -5.73174,-6.62912 6.33923,-0.0675 c 3.48659,-0.0371 9.1919,-0.0371 12.67848,0 l 6.33924,0.0675 -5.73175,6.62912 -5.73174,6.62913 h -1.21499 -1.21498 z"
       id="path71"
       inkscape:connector-curvature="0"
       transform="matrix(0.26458333,0,0,0.26458333,0,219)" />
    <path
       style="opacity:1;fill:#ffffff;fill-opacity:1;fill-rule:nonzero;stroke:#000000;stroke-width:0.38178995;stroke-linecap:square;stroke-linejoin:round;stroke-miterlimit:4;stroke-dasharray:none;stroke-opacity:1;paint-order:stroke fill markers"
       d="m 241.25946,247.31053 c -0.76084,-1.80564 -3.90632,-9.19238 -6.98997,-16.41498 -3.08365,-7.22259 -7.42183,-17.50713 -9.6404,-22.85454 l -4.03377,-9.72255 7.29229,-7.24362 7.29228,-7.24362 9.80393,23.02709 9.80392,23.02709 -0.0251,10.35407 -0.0251,10.35406 h -6.04736 c -5.86546,0 -6.08896,-0.0987 -7.43068,-3.283 z"
       id="path73"
       inkscape:connector-curvature="0"
       transform="matrix(0.26458333,0,0,0.26458333,0,219)" />
    <path
       style="opacity:1;fill:#ffffff;fill-opacity:1;fill-rule:nonzero;stroke:#000000;stroke-width:0.38178995;stroke-linecap:square;stroke-linejoin:round;stroke-miterlimit:4;stroke-dasharray:none;stroke-opacity:1;paint-order:stroke fill markers"
       d="m 174.05821,271.16874 c -2.97741,-7.48608 -5.19427,-13.83027 -4.92634,-14.0982 0.26793,-0.26793 5.27714,-0.35751 11.13158,-0.19908 l 10.64443,0.28806 -5.42883,13.52088 c -2.98586,7.43649 -5.559,13.65105 -5.71809,13.81014 -0.15909,0.15909 -2.72533,-5.83572 -5.70275,-13.3218 z"
       id="path75"
       inkscape:connector-curvature="0"
       transform="matrix(0.26458333,0,0,0.26458333,0,219)" />
    <path
       style="opacity:1;fill:#ffffff;fill-opacity:1;fill-rule:nonzero;stroke:#000000;stroke-width:0.38178995;stroke-linecap:square;stroke-linejoin:round;stroke-miterlimit:4;stroke-dasharray:none;stroke-opacity:1;paint-order:stroke fill markers"
       d=""
       id="path77"
       inkscape:connector-curvature="0"
       transform="matrix(0.26458333,0,0,0.26458333,0,219)" />
    <path
       style="opacity:1;fill:#ffffff;fill-opacity:1;fill-rule:nonzero;stroke:#000000;stroke-width:0.38178995;stroke-linecap:square;stroke-linejoin:round;stroke-miterlimit:4;stroke-dasharray:none;stroke-opacity:1;paint-order:stroke fill markers"
       d="m 260.79842,239.9913 v -10.69863 l 9.47943,-22.23087 c 5.21369,-12.22698 9.67032,-22.42176 9.90362,-22.65506 0.2333,-0.2333 3.6343,2.85814 7.55776,6.86987 l 7.13358,7.29406 -10.90796,25.75889 -10.90795,25.75889 -6.12924,0.30074 -6.12924,0.30074 z"
       id="path79"
       inkscape:connector-curvature="0"
       transform="matrix(0.26458333,0,0,0.26458333,0,219)" />
    <path
       style="opacity:1;fill:#ffffff;fill-opacity:1;fill-rule:nonzero;stroke:#000000;stroke-width:0.38178995;stroke-linecap:square;stroke-linejoin:round;stroke-miterlimit:4;stroke-dasharray:none;stroke-opacity:1;paint-order:stroke fill markers"
       d="m 291.07862,183.21071 -9.45989,-9.06351 4.28534,-11.7716 c 2.35695,-6.47438 4.98236,-13.43977 5.83426,-15.47866 l 1.54891,-3.70706 9.24737,9.24736 9.24736,9.24736 -2.95748,8.34151 c -1.62662,4.58783 -4.1564,11.4705 -5.62173,15.29481 l -2.66424,6.95331 z"
       id="path81"
       inkscape:connector-curvature="0"
       transform="matrix(0.26458333,0,0,0.26458333,0,219)" />
    <path
       style="opacity:1;fill:#ffffff;fill-opacity:1;fill-rule:nonzero;stroke:#000000;stroke-width:0.19089498;stroke-linecap:square;stroke-linejoin:round;stroke-miterlimit:4;stroke-dasharray:none;stroke-opacity:1;paint-order:stroke fill markers"
       d="m 251.82981,271.08042 -5.58921,-14.26841 5.76128,-0.14229 c 3.1687,-0.0783 8.32536,-0.0783 11.45925,0 l 5.69797,0.14229 -5.5717,14.26378 c -3.06444,7.84508 -5.70596,14.26586 -5.87004,14.26841 -0.16408,0.003 -2.81348,-6.41616 -5.88755,-14.26378 z"
       id="path83"
       inkscape:connector-curvature="0"
       transform="matrix(0.26458333,0,0,0.26458333,0,219)" />
    <path
       style="opacity:1;fill:#ffffff;fill-opacity:1;fill-rule:nonzero;stroke:#000000;stroke-width:0.19089498;stroke-linecap:square;stroke-linejoin:round;stroke-miterlimit:4;stroke-dasharray:none;stroke-opacity:1;paint-order:stroke fill markers"
       d="m 303.96136,148.96189 c -2.75855,-2.76893 -4.78019,-5.03442 -4.49255,-5.03442 0.80675,0 4.88609,2.74442 6.08792,4.09571 1.35875,1.52773 3.85849,5.53481 3.60864,5.78466 -0.10366,0.10366 -2.44547,-2.07701 -5.20401,-4.84595 z"
       id="path85"
       inkscape:connector-curvature="0"
       transform="matrix(0.26458333,0,0,0.26458333,0,219)" />
    <path
       style="opacity:1;fill:#ffffff;fill-opacity:1;fill-rule:nonzero;stroke:#000000;stroke-width:0.19089498;stroke-linecap:square;stroke-linejoin:round;stroke-miterlimit:4;stroke-dasharray:none;stroke-opacity:1;paint-order:stroke fill markers"
       d="m 180.99156,134.58356 c 0,-0.59327 0.69027,-0.75762 3.18198,-0.75762 1.80144,0 3.44494,-0.26296 3.78807,-0.60609 0.44368,-0.44368 0.6061,-4.55074 0.6061,-15.32655 0,-17.06974 0.19474,-16.39224 -4.71173,-16.39224 -2.20943,0 -2.86442,-0.17324 -2.86442,-0.75761 0,-0.59144 0.6924,-0.760052 3.15673,-0.768711 2.00633,-0.0071 3.93007,-0.362181 5.2788,-0.974489 l 2.12207,-0.963396 0.15077,17.408336 c 0.12828,14.81176 0.26378,17.47971 0.90839,17.88681 0.41668,0.26316 2.17814,0.48195 3.91434,0.48621 2.46582,0.006 3.15672,0.17355 3.15672,0.76535 0,0.64613 -1.37493,0.75761 -9.34391,0.75761 -7.96898,0 -9.34391,-0.11148 -9.34391,-0.75761 z"
       id="path87"
       inkscape:connector-curvature="0"
       transform="matrix(0.26458333,0,0,0.26458333,0,219)" />
    <path
       style="opacity:1;fill:#ffffff;fill-opacity:1;fill-rule:nonzero;stroke:#000000;stroke-width:0.09544749;stroke-linecap:square;stroke-linejoin:round;stroke-miterlimit:4;stroke-dasharray:none;stroke-opacity:1;paint-order:stroke fill markers"
       d="m 188.81222,87.524459 c -1.09757,-0.923544 -1.52553,-1.877325 -1.52553,-3.399871 0,-1.208212 0.0845,-1.392983 1.10319,-2.411654 0.87559,-0.875586 1.27938,-1.101346 1.95717,-1.094244 2.21912,0.02325 3.80601,2.362549 3.20955,4.731307 -0.63895,2.537511 -3.01741,3.627613 -4.74438,2.174462 z"
       id="path89"
       inkscape:connector-curvature="0"
       transform="matrix(0.26458333,0,0,0.26458333,0,219)" />
    <path
       style="opacity:1;fill:#ffffff;fill-opacity:1;fill-rule:nonzero;stroke:#000000;stroke-width:0.09544749;stroke-linecap:square;stroke-linejoin:round;stroke-miterlimit:4;stroke-dasharray:none;stroke-opacity:1;paint-order:stroke fill markers"
       d="m 216.37781,107.25252 c 0.005,-0.41669 0.0617,-0.55658 0.12577,-0.31087 0.064,0.24571 0.0598,0.58664 -0.009,0.75761 -0.0692,0.17098 -0.12156,-0.0301 -0.11641,-0.44674 z"
       id="path91"
       inkscape:connector-curvature="0"
       transform="matrix(0.26458333,0,0,0.26458333,0,219)" />
    <path
       style="opacity:1;fill:#ffffff;fill-opacity:1;fill-rule:nonzero;stroke:#000000;stroke-width:0.09544749;stroke-linecap:square;stroke-linejoin:round;stroke-miterlimit:4;stroke-dasharray:none;stroke-opacity:1;paint-order:stroke fill markers"
       d="m 222.01068,135.66373 c -0.97227,-0.1056 -2.4746,-0.48988 -3.33852,-0.85396 -0.86391,-0.36407 -1.71623,-0.66185 -1.89403,-0.66174 -0.17781,1e-4 -1.04969,0.34384 -1.93751,0.76384 -0.88782,0.42001 -1.63799,0.73244 -1.66704,0.69428 -0.071,-0.0932 -0.64004,-9.69979 -0.63615,-10.7391 0.003,-0.69506 0.0951,-0.82075 0.60372,-0.82075 0.52962,0 0.65021,0.19736 1.01993,1.66919 0.8853,3.52442 2.60237,5.9748 5.01515,7.15701 4.04132,1.98016 8.65266,1.6238 11.20579,-0.86595 1.11195,-1.08434 1.34348,-1.47995 1.59863,-2.73148 0.50268,-2.46563 -0.0145,-4.34657 -1.72472,-6.2726 -0.81883,-0.92216 -1.56167,-1.3969 -3.50569,-2.24039 -1.3567,-0.58865 -4.0577,-1.87744 -6.00225,-2.86398 -5.74523,-2.91476 -7.19734,-4.72406 -7.19734,-8.96772 0,-4.53903 1.86094,-7.2875 6.03433,-8.91228 2.11531,-0.823532 5.56361,-0.768767 8.08891,0.12846 2.42389,0.8612 4.00765,0.87999 4.89452,0.0581 l 0.65622,-0.608163 0.14011,1.050113 c 0.0771,0.57756 0.31557,2.80126 0.53001,4.94155 0.31901,3.18401 0.33015,3.92934 0.0613,4.09988 -0.57218,0.36293 -1.21249,0.23994 -1.21249,-0.2329 0,-1.0468 -1.80342,-4.17268 -3.23093,-5.60019 -2.24002,-2.24002 -3.21444,-2.66331 -6.131,-2.66331 -2.19091,0 -2.55647,0.0713 -3.90593,0.76148 -1.89079,0.9671 -2.81857,2.35114 -3.04806,4.54706 -0.192,1.83713 0.24153,4.13695 0.94951,5.037 0.50889,0.64695 5.88464,3.37969 8.93,4.53954 3.80629,1.44965 5.60198,2.776 7.37074,5.44424 1.04361,1.57432 1.33852,2.57828 1.33852,4.55677 0,4.47615 -2.55491,8.12474 -6.43973,9.19639 -1.68269,0.46418 -4.3969,0.62525 -6.56599,0.38965 z"
       id="path93"
       inkscape:connector-curvature="0"
       transform="matrix(0.26458333,0,0,0.26458333,0,219)" />
    <path
       style="opacity:1;fill:#ffffff;fill-opacity:1;fill-rule:nonzero;stroke:#000000;stroke-width:0.09544749;stroke-linecap:square;stroke-linejoin:round;stroke-miterlimit:4;stroke-dasharray:none;stroke-opacity:1;paint-order:stroke fill markers"
       d="m 247.13823,134.67826 v -0.73225 l 3.30501,-0.0885 c 3.26085,-0.0873 3.31316,-0.098 3.91434,-0.79705 l 0.60933,-0.70857 v -14.40476 c 0,-13.18415 -0.0369,-14.46723 -0.43549,-15.14198 -0.5722,-0.96866 -1.59649,-1.23159 -4.80468,-1.23333 l -2.58851,-0.001 v -0.75762 -0.75761 l 1.70463,-0.002 c 3.47946,-0.004 5.78321,-0.422488 7.58187,-1.377579 0.92531,-0.49134 1.77133,-0.893346 1.88005,-0.893346 0.10871,0 0.19766,7.759205 0.19766,17.242675 0,19.16907 -0.098,18.10381 1.71208,18.60652 0.51677,0.14352 2.10441,0.26158 3.52809,0.26235 l 2.58852,0.001 v 0.75761 0.75762 h -9.59645 -9.59645 z"
       id="path95"
       inkscape:connector-curvature="0"
       transform="matrix(0.26458333,0,0,0.26458333,0,219)" />
    <path
       style="opacity:1;fill:#ffffff;fill-opacity:1;fill-rule:nonzero;stroke:#000000;stroke-width:0.09544749;stroke-linecap:square;stroke-linejoin:round;stroke-miterlimit:4;stroke-dasharray:none;stroke-opacity:1;paint-order:stroke fill markers"
       d="m 255.0932,87.352533 c -1.75239,-1.752396 -1.79124,-4.177793 -0.0928,-5.793485 1.26589,-1.204214 2.53895,-1.302093 3.74428,-0.28788 1.56982,1.32092 1.94189,3.088245 1.0275,4.880602 -1.12004,2.195455 -3.16062,2.719127 -4.67898,1.200763 z"
       id="path97"
       inkscape:connector-curvature="0"
       transform="matrix(0.26458333,0,0,0.26458333,0,219)" />
    <path
       style="opacity:1;fill:#ffffff;fill-opacity:1;fill-rule:nonzero;stroke:#000000;stroke-width:0.09544749;stroke-linecap:square;stroke-linejoin:round;stroke-miterlimit:4;stroke-dasharray:none;stroke-opacity:1;paint-order:stroke fill markers"
       d="m 287.40759,135.83244 c -3.49245,-0.89392 -6.59192,-3.56703 -8.39532,-7.24045 -1.80851,-3.68385 -2.17098,-5.47353 -2.17378,-10.73287 -0.002,-4.24933 0.043,-4.69306 0.69334,-6.80607 2.50734,-8.14596 7.97784,-12.585773 14.23083,-11.54962 3.98278,0.65997 6.91029,3.117 9.15404,7.6829 1.95663,3.98163 2.7373,7.93667 2.43448,12.33353 -0.53805,7.81206 -4.15976,13.92064 -9.42035,15.88888 -1.7668,0.66104 -4.82095,0.85942 -6.52324,0.4237 z m 6.18033,-2.3309 c 3.52704,-1.91966 5.49276,-6.70409 5.75237,-14.00093 0.22871,-6.42829 -0.57015,-10.40186 -2.81549,-14.00436 -1.85141,-2.97046 -3.98341,-4.43092 -6.46833,-4.43092 -4.00381,0 -7.78356,4.52957 -8.95533,10.73187 -1.07501,5.69017 -0.52112,13.12789 1.28305,17.22907 0.99712,2.26661 3.32307,4.38225 5.66521,5.15295 0.34724,0.11426 1.43448,0.17234 2.41608,0.12907 1.39098,-0.0613 2.07986,-0.23931 3.12244,-0.80675 z"
       id="path99"
       inkscape:connector-curvature="0"
       transform="matrix(0.26458333,0,0,0.26458333,0,219)" />
    <path
       style="opacity:1;fill:#ffffff;fill-opacity:1;fill-rule:nonzero;stroke:#000000;stroke-width:0.09544749;stroke-linecap:square;stroke-linejoin:round;stroke-miterlimit:4;stroke-dasharray:none;stroke-opacity:1;paint-order:stroke fill markers"
       d="m 308.75753,134.6529 c 0,-0.61689 0.10554,-0.75787 0.56821,-0.75902 0.31252,-7.6e-4 1.00345,-0.12226 1.53541,-0.26998 1.73787,-0.48257 1.70532,-0.15217 1.62732,-16.51975 -0.0783,-16.43686 0.0894,-15.25518 -2.19685,-15.47486 -1.19715,-0.11503 -1.28155,-0.16852 -1.28155,-0.81218 0,-0.67799 0.0312,-0.69139 1.94555,-0.836171 1.46731,-0.110973 2.30533,-0.332701 3.40926,-0.90204 l 1.46372,-0.754898 v 3.643509 c 0,2.00393 0.0852,3.64082 0.1894,3.63754 0.10418,-0.003 0.53033,-0.47011 0.94702,-1.0374 1.24229,-1.69127 3.42808,-3.53396 5.17703,-4.3644 3.85295,-1.82946 8.7389,-0.485171 10.481,2.88367 0.22349,0.43217 0.62728,1.64964 0.89732,2.70548 0.45235,1.7687 0.49098,2.86084 0.49098,13.88299 0,13.53083 -0.006,13.47903 1.68446,13.94851 0.53195,0.14772 1.22288,0.26921 1.5354,0.26998 0.46267,0.001 0.56821,0.14213 0.56821,0.75902 v 0.75762 h -5.42957 -5.42957 v -0.75762 c 0,-0.61689 0.10554,-0.75787 0.56821,-0.75902 0.31251,-7.6e-4 1.00345,-0.12226 1.5354,-0.26998 1.74039,-0.48327 1.72979,-0.38928 1.63238,-14.47121 -0.0839,-12.13232 -0.0982,-12.4361 -0.6476,-13.80721 -0.55638,-1.38848 -1.65962,-2.67675 -2.78982,-3.25773 -0.32192,-0.16549 -1.2082,-0.30088 -1.96949,-0.30088 -2.81915,0 -5.91763,2.13233 -8.3807,5.76746 l -1.06006,1.56451 v 11.25991 c 0,12.75671 0.003,12.77817 1.68446,13.24515 0.53195,0.14772 1.22289,0.26921 1.5354,0.26998 0.46267,0.001 0.56821,0.14213 0.56821,0.75902 v 0.75762 h -5.42957 -5.42957 z"
       id="path101"
       inkscape:connector-curvature="0"
       transform="matrix(0.26458333,0,0,0.26458333,0,219)" />
    <path
       style="opacity:1;fill:#ffffff;fill-opacity:1;fill-rule:nonzero;stroke:#000000;stroke-width:0.09544749;stroke-linecap:square;stroke-linejoin:round;stroke-miterlimit:4;stroke-dasharray:none;stroke-opacity:1;paint-order:stroke fill markers"
       d="m 350.55259,135.63465 c -2.34423,-0.33973 -4.48831,-1.5178 -5.71187,-3.1384 -1.8273,-2.42023 -2.34226,-5.10766 -1.62614,-8.48631 0.85983,-4.05667 3.51303,-7.00588 7.91388,-8.79682 1.97173,-0.8024 6.90882,-2.07533 9.86494,-2.54348 l 1.85452,-0.29369 -0.0867,-3.4623 c -0.0826,-3.29646 -0.12415,-3.53407 -0.86773,-4.96083 -1.00732,-1.93281 -2.20528,-2.65405 -4.70543,-2.83294 -3.59189,-0.257 -6.85846,0.87492 -8.02641,2.78128 -0.42154,0.68805 -0.49524,1.19346 -0.44141,3.02673 0.0578,1.96748 0.007,2.25888 -0.48189,2.74922 -0.62275,0.62495 -2.34785,0.75917 -2.98296,0.23207 -0.68417,-0.5678 -0.976,-2.2524 -0.6458,-3.72787 0.53153,-2.37513 3.609,-5.14408 6.83221,-6.14725 4.65173,-1.447781 10.13351,-0.502353 12.59958,2.17301 2.25719,2.44876 2.2949,2.73908 2.2949,17.66674 0,13.90509 -0.0842,13.26386 1.74178,13.26386 1.5768,0 2.54652,-1.60862 2.54996,-4.23001 0.001,-0.94936 0.0681,-1.07329 0.57886,-1.07329 0.56803,0 0.57461,0.033 0.40345,2.02477 -0.31604,3.6775 -1.78965,5.55177 -4.36438,5.55099 -0.72581,-2.3e-4 -1.66845,-0.19322 -2.1586,-0.44195 -0.83419,-0.42331 -1.76671,-1.79102 -2.10615,-3.08902 -0.14226,-0.54401 -0.19988,-0.52388 -1.61608,0.56447 -2.10629,1.61868 -3.84274,2.63177 -5.0041,2.91952 -1.58148,0.39184 -4.1497,0.51189 -5.80838,0.2715 z m 6.37232,-2.51874 c 1.35089,-0.46323 2.89487,-1.40806 4.8025,-2.93885 l 1.07328,-0.86127 v -7.58791 -7.58791 l -1.19955,0.17953 c -2.49389,0.37326 -6.06999,1.42825 -8.01809,2.36544 -2.67657,1.28764 -4.43372,2.90112 -5.48498,5.03653 -0.77714,1.57859 -0.82847,1.84749 -0.82847,4.33983 0,3.0601 0.46208,4.66235 1.73724,6.02382 1.00517,1.07319 1.46387,1.31523 2.90231,1.53143 1.56308,0.23494 3.40753,0.0508 5.01576,-0.50064 z"
       id="path103"
       inkscape:connector-curvature="0"
       transform="matrix(0.26458333,0,0,0.26458333,0,219)" />
    <path
       style="opacity:1;fill:#ffffff;fill-opacity:1;fill-rule:nonzero;stroke:#000000;stroke-width:0.13498312;stroke-linecap:square;stroke-linejoin:round;stroke-miterlimit:4;stroke-dasharray:none;stroke-opacity:1;paint-order:stroke fill markers"
       d="m 375.32195,134.75753 c 0,-0.59568 0.36422,-0.68802 3.25981,-0.82646 2.66221,-0.12728 3.34967,-0.27875 3.75,-0.82623 0.39669,-0.54251 0.49019,-3.4738 0.49019,-15.36819 0,-17.31456 0.35851,-15.97207 -4.32211,-16.18463 -2.3959,-0.10881 -2.82074,-0.22193 -2.82074,-0.75109 0,-0.52826 0.47586,-0.65677 3.12957,-0.845132 1.72127,-0.122179 4.07679,-0.548031 5.23449,-0.946337 1.15769,-0.398306 2.1601,-0.724193 2.22756,-0.724193 0.0675,0 0.12266,2.599652 0.12266,5.777012 v 5.77701 l 2.13753,-3.24462 c 3.06571,-4.65353 5.77371,-6.773392 9.13685,-7.152467 2.98973,-0.336986 5.68828,1.933907 5.68935,4.787717 7e-4,1.86667 -0.92913,2.98392 -2.48337,2.98392 -1.47181,0 -1.98036,-0.56265 -1.98036,-2.19104 0,-2.94687 -1.12499,-3.95812 -3.36303,-3.02301 -2.98276,1.24627 -6.19052,5.00055 -8.24832,9.65359 -0.87364,1.97546 -0.88856,2.16757 -0.88318,11.37421 0.003,5.15065 0.12681,9.55566 0.27513,9.78891 0.48691,0.76576 2.22276,1.18305 4.92122,1.18305 2.41723,0 2.65532,0.0641 2.65532,0.71429 0,0.69632 -0.23809,0.71429 -9.46428,0.71429 -9.02068,0 -9.46429,-0.0314 -9.46429,-0.6706 z"
       id="path105"
       inkscape:connector-curvature="0"
       transform="matrix(0.26458333,0,0,0.26458333,0,219)" />
    <path
       style="opacity:1;fill:#ffffff;fill-opacity:1;fill-rule:nonzero;stroke:#000000;stroke-width:0.13498312;stroke-linecap:square;stroke-linejoin:round;stroke-miterlimit:4;stroke-dasharray:none;stroke-opacity:1;paint-order:stroke fill markers"
       d="m 412.5541,146.14633 c -0.99927,-0.60926 -1.16072,-0.90715 -1.16072,-2.14153 0,-2.79901 2.23006,-3.70473 4.40972,-1.79096 2.29341,2.01364 3.18032,1.39791 4.85389,-3.36978 2.12686,-6.05905 2.36128,-4.3264 -2.79999,-20.69517 -4.78536,-15.17663 -5.15811,-16.02714 -7.22276,-16.48062 -0.69605,-0.15288 -1.02657,-0.44631 -1.02657,-0.91138 0,-0.64491 0.30951,-0.68591 5.17857,-0.68591 4.94047,0 5.17857,0.0328 5.17857,0.71429 0,0.39286 -0.2194,0.71428 -0.48755,0.71428 -0.84669,0 -2.36941,1.44829 -2.37411,2.25807 -0.006,0.95454 6.0784,22.43198 6.48598,22.8967 0.16079,0.18333 0.38534,0.24034 0.49899,0.12668 0.11366,-0.11365 1.56542,-5.28883 3.22614,-11.50038 2.87967,-10.77081 2.99436,-11.34232 2.47698,-12.34282 -0.38766,-0.74966 -0.899,-1.11595 -1.7916,-1.2834 -0.90377,-0.16955 -1.24912,-0.42083 -1.24912,-0.90888 0,-0.63028 0.33981,-0.67454 5.17858,-0.67454 4.83876,0 5.17857,0.0443 5.17857,0.67454 0,0.47971 -0.33881,0.7381 -1.17302,0.8946 -1.52531,0.28615 -2.62942,1.07957 -3.29593,2.36845 -0.29497,0.5704 -2.7014,8.755 -5.34763,18.18799 -4.74338,16.90864 -5.84819,20.05887 -7.88281,22.47689 -1.8784,2.23235 -4.63649,2.82503 -6.85418,1.47288 z"
       id="path107"
       inkscape:connector-curvature="0"
       transform="matrix(0.26458333,0,0,0.26458333,0,219)" />
    <path
       style="opacity:1;fill:#ffffff;fill-opacity:1;fill-rule:nonzero;stroke:#000000;stroke-width:0.13498312;stroke-linecap:square;stroke-linejoin:round;stroke-miterlimit:4;stroke-dasharray:none;stroke-opacity:1;paint-order:stroke fill markers"
       d="m 300.6791,289.20206 c -4.03307,-1.124 -7.52568,-3.91213 -8.95866,-7.15163 -1.12963,-2.55371 -1.60487,-6.62378 -1.11024,-9.50827 0.55421,-3.2319 1.56057,-5.30617 3.72142,-7.67048 5.06437,-5.54123 14.45971,-6.10854 20.34921,-1.22873 1.98607,1.64557 3.50024,5.01159 3.75203,8.34075 l 0.20648,2.73014 h -11.8883 -11.8883 l 0.20115,2.76786 c 0.36522,5.02559 1.80635,7.60833 5.16581,9.25799 1.8617,0.91419 2.41271,1.00987 5.81607,1.00987 3.32863,0 3.96228,-0.10434 5.52843,-0.91031 1.59104,-0.81878 4.47625,-3.77519 4.88708,-5.00767 0.0925,-0.27741 0.40305,-0.36477 0.78107,-0.21971 1.72349,0.66136 -3.77202,6.5982 -6.99319,7.55479 -2.20461,0.6547 -7.28058,0.67348 -9.57006,0.0354 z m 13.13914,-18.14893 c -0.36563,-5.59917 -3.77809,-9.19643 -8.724,-9.19643 -5.7439,0 -9.57066,3.60633 -10.04073,9.46236 l -0.18649,2.32335 h 9.56015 9.56014 z"
       id="path109"
       inkscape:connector-curvature="0"
       transform="matrix(0.26458333,0,0,0.26458333,0,219)" />
    <path
       style="opacity:1;fill:#ffffff;fill-opacity:1;fill-rule:nonzero;stroke:#000000;stroke-width:0.13498312;stroke-linecap:square;stroke-linejoin:round;stroke-miterlimit:4;stroke-dasharray:none;stroke-opacity:1;paint-order:stroke fill markers"
       d="m 340.21411,289.30117 c -2.52559,-0.31445 -3.92283,-0.86567 -5.85042,-2.30803 l -1.13684,-0.85065 -1.3169,1.6071 c -0.72429,0.88391 -1.53861,1.60711 -1.80959,1.60711 -0.41315,0 -0.49269,-3.33529 -0.49269,-20.65894 0,-23.3381 0.19164,-21.84106 -2.79598,-21.84106 -1.25164,0 -1.48974,-0.11416 -1.48974,-0.71429 0,-0.63772 0.23926,-0.71466 2.23215,-0.71777 1.61233,-0.003 2.75278,-0.24588 4.10714,-0.87643 l 1.875,-0.87294 v 11.45077 11.45077 l 1.58248,-1.76011 c 1.09364,-1.21639 2.38996,-2.1385 4.19643,-2.98505 2.36207,-1.10692 2.90989,-1.22292 5.68522,-1.20386 2.59436,0.0178 3.38085,0.17255 5.06486,0.99646 4.23036,2.06972 6.68529,6.8764 6.68529,13.08959 0,10.15026 -6.45311,15.84278 -16.53641,14.58733 z m 5.93669,-1.75594 c 2.02925,-0.56349 4.01289,-2.54555 4.88776,-4.88387 2.57886,-6.89262 1.09009,-16.62622 -2.95216,-19.30126 -1.24383,-0.82312 -1.83967,-0.96769 -3.98837,-0.96769 -3.39402,0 -5.42572,0.82722 -7.51338,3.05909 -2.79417,2.9872 -3.03152,3.84539 -3.04057,10.99408 -0.006,5.0311 0.10301,6.42962 0.58174,7.43847 0.67741,1.42753 2.44896,2.95456 4.13859,3.56734 1.4764,0.53544 6.09803,0.59044 7.88639,0.0938 z"
       id="path111"
       inkscape:connector-curvature="0"
       transform="matrix(0.26458333,0,0,0.26458333,0,219)" />
    <path
       style="opacity:1;fill:#ffffff;fill-opacity:1;fill-rule:nonzero;stroke:#000000;stroke-width:0.03374578;stroke-linecap:square;stroke-linejoin:round;stroke-miterlimit:4;stroke-dasharray:none;stroke-opacity:1;paint-order:stroke fill markers"
       d="m 378.8023,289.60394 c -1.49771,-0.0776 -3.14319,-0.29915 -3.67992,-0.49557 -1.70016,-0.62217 -2.5545,-0.80721 -3.28154,-0.71077 -0.45547,0.0604 -2.36425,0.68013 -3.18104,1.03276 -0.2593,0.11195 -0.48571,0.18802 -0.50312,0.16906 -0.0373,-0.0406 -0.85849,-8.85423 -0.85687,-9.1963 0.001,-0.2173 0.0362,-0.23734 0.5145,-0.29314 0.28236,-0.0329 0.66406,-0.0838 0.84821,-0.11299 0.27067,-0.0429 0.33482,-0.0254 0.33482,0.0912 0,0.0794 0.12511,0.53649 0.27802,1.01587 1.58569,4.97127 5.66033,7.27328 12.47966,7.0505 2.5001,-0.0817 4.02693,-0.41973 5.43543,-1.20342 0.9871,-0.54924 1.65816,-1.22336 2.06425,-2.07369 0.29042,-0.60812 0.32296,-0.75465 0.35422,-1.59498 0.0442,-1.18922 -0.12927,-1.87606 -0.65401,-2.58888 -0.47997,-0.65199 -1.48565,-1.56478 -2.19974,-1.99656 -0.5535,-0.33468 -2.98187,-1.18047 -5.97211,-2.08006 -1.73813,-0.5229 -7.06058,-2.50403 -8.29124,-3.08617 -1.7274,-0.81712 -2.86805,-1.84912 -3.49427,-3.16142 -0.41629,-0.87236 -0.53592,-1.42034 -0.53592,-2.45477 0,-1.79021 0.58747,-3.31184 1.76509,-4.57182 1.05715,-1.13109 3.02558,-2.13959 5.28848,-2.70951 2.52545,-0.63605 6.08986,-0.65068 8.31947,-0.0342 1.77718,0.49142 3.14136,0.72679 4.26981,0.73673 1.26574,0.0111 1.52875,-0.0689 2.40832,-0.73253 0.26876,-0.20279 0.50984,-0.36867 0.53571,-0.36861 0.0699,1.5e-4 1.18891,8.21815 1.12739,8.27967 -0.0503,0.0503 -1.59464,0.3023 -1.62404,0.26498 -0.008,-0.01 -0.15796,-0.3522 -0.33374,-0.7607 -0.73241,-1.70207 -1.88072,-3.02862 -3.74682,-4.32837 -2.49092,-1.73494 -4.56524,-2.29117 -7.62372,-2.0443 -3.62707,0.29276 -5.70462,1.28048 -6.57547,3.12615 -0.25601,0.54258 -0.28436,0.6909 -0.31422,1.64375 -0.0516,1.64792 0.38541,3.14431 1.07113,3.66733 0.44939,0.34277 1.54653,0.83276 2.35225,1.05054 1.28374,0.34698 2.02448,0.58824 4.05877,1.32196 1.10286,0.39777 2.81107,0.94245 3.79602,1.21039 4.48687,1.22059 6.04171,2.0056 8.00993,4.0441 1.42875,1.47977 1.77168,2.15246 1.83744,3.60427 0.13744,3.03433 -1.47545,5.57006 -4.44821,6.99334 -1.53816,0.73643 -3.35394,1.13602 -5.89474,1.29721 -1.59378,0.10112 -1.96697,0.10101 -3.93818,-10e-4 z"
       id="path117"
       inkscape:connector-curvature="0"
       transform="matrix(0.26458333,0,0,0.26458333,0,219)" />
    <path
       style="opacity:1;fill:#ffffff;fill-opacity:1;fill-rule:nonzero;stroke:#000000;stroke-width:0.03374578;stroke-linecap:square;stroke-linejoin:round;stroke-miterlimit:4;stroke-dasharray:none;stroke-opacity:1;paint-order:stroke fill markers"
       d="m 406.7652,288.67208 v -0.75893 h 3.51058 c 2.96244,0 3.58592,-0.0224 3.99308,-0.14329 0.58699,-0.17432 1.09612,-0.6494 1.23604,-1.15337 0.13914,-0.5012 0.13916,-22.4403 10e-6,-22.94441 -0.0635,-0.23005 -0.26191,-0.52054 -0.55754,-0.81629 -0.73212,-0.73241 -0.82103,-0.74621 -4.80552,-0.74621 h -3.37665 v -0.75893 -0.75893 h 2.6512 c 1.45816,0 3.21597,-0.0432 3.90625,-0.0961 1.75606,-0.13443 3.45055,-0.58454 5.19738,-1.38059 0.373,-0.16998 0.7937,-0.30906 0.93489,-0.30906 h 0.25671 v 13.84216 c 0,11.3997 0.0212,13.89285 0.1202,14.12946 0.16461,0.39347 0.4857,0.68227 1.00479,0.90376 0.41594,0.17748 0.61685,0.18803 4.0759,0.21385 l 3.63839,0.0272 v 0.75431 0.7543 H 417.65806 406.7652 Z"
       id="path119"
       inkscape:connector-curvature="0"
       transform="matrix(0.26458333,0,0,0.26458333,0,219)" />
    <path
       style="opacity:1;fill:#ffffff;fill-opacity:1;fill-rule:nonzero;stroke:#000000;stroke-width:0.03374578;stroke-linecap:square;stroke-linejoin:round;stroke-miterlimit:4;stroke-dasharray:none;stroke-opacity:1;paint-order:stroke fill markers"
       d="m 417.0777,251.18211 c -0.67744,-0.16496 -1.27452,-0.49544 -1.84354,-1.02039 -1.03198,-0.95206 -1.34468,-2.17443 -0.8237,-3.21991 0.27531,-0.55246 1.0245,-1.19691 1.90643,-1.63989 0.55313,-0.27783 0.62376,-0.29056 1.61178,-0.29056 1.01253,0 1.04679,0.007 1.70515,0.33205 0.41987,0.20751 0.89299,0.54239 1.26143,0.89286 0.50098,0.47653 0.61197,0.63925 0.7386,1.08283 0.27426,0.96063 -0.037,1.92516 -0.89316,2.76775 -1.01596,0.99986 -2.37992,1.40769 -3.66299,1.09526 z"
       id="path121"
       inkscape:connector-curvature="0"
       transform="matrix(0.26458333,0,0,0.26458333,0,219)" />
    <path
       style="opacity:1;fill:#ffffff;fill-opacity:1;fill-rule:nonzero;stroke:#000000;stroke-width:0.03374578;stroke-linecap:square;stroke-linejoin:round;stroke-miterlimit:4;stroke-dasharray:none;stroke-opacity:1;paint-order:stroke fill markers"
       d="m 457.56325,289.60366 c -1.25718,-0.11877 -2.49574,-0.45983 -3.52126,-0.96966 -2.06207,-1.02514 -2.98918,-2.34296 -3.6325,-5.16336 -0.19784,-0.86734 -0.19854,-0.9012 -0.22815,-11.11553 l -0.0297,-10.24553 h -4.41643 -4.41644 v -0.74965 -0.74964 l 2.12054,-0.0434 c 2.43666,-0.0499 2.96433,-0.14963 4.36404,-0.82519 0.62034,-0.29941 0.99006,-0.55807 1.5484,-1.08332 1.59499,-1.50044 2.41445,-3.30133 2.85805,-6.28097 0.0987,-0.66294 0.20158,-1.33594 0.22862,-1.49553 l 0.0492,-0.29018 h 0.84416 0.84417 v 5 5 h 5.89286 5.89286 v 0.75893 0.75893 h -5.89601 -5.89602 l 0.0301,10.4241 c 0.0336,11.62064 0.003,11.03641 0.65635,12.43304 0.37554,0.80243 0.93276,1.36499 1.74677,1.76353 1.04012,0.50924 1.54261,0.59737 3.42129,0.60009 1.94804,0.003 2.38154,-0.0789 3.61607,-0.68133 1.57172,-0.76701 2.7674,-2.4777 3.38557,-4.84381 0.10147,-0.38838 0.20232,-0.72399 0.22411,-0.74578 0.0429,-0.0429 1.09716,0.29417 1.27649,0.4081 0.14587,0.0927 -0.13836,1.29449 -0.52829,2.23383 -0.57597,1.38747 -1.23438,2.33366 -2.40462,3.45564 -1.10516,1.05958 -1.86743,1.53675 -3.15862,1.97726 -1.26546,0.43172 -3.24817,0.62277 -4.87159,0.46941 z"
       id="path123"
       inkscape:connector-curvature="0"
       transform="matrix(0.26458333,0,0,0.26458333,0,219)" />
    <path
       style="opacity:1;fill:#ffffff;fill-opacity:1;fill-rule:nonzero;stroke:#000000;stroke-width:0.03374578;stroke-linecap:square;stroke-linejoin:round;stroke-miterlimit:4;stroke-dasharray:none;stroke-opacity:1;paint-order:stroke fill markers"
       d="m 493.10449,289.8663 c -2.5094,-0.12824 -4.46051,-0.59687 -6.5113,-1.56392 -4.10568,-1.93604 -6.4625,-5.10607 -7.29044,-9.80595 -0.23717,-1.34632 -0.33361,-3.40178 -0.22231,-4.73815 0.3362,-4.0369 1.63257,-6.88775 4.30549,-9.46823 2.11517,-2.04202 4.42425,-3.27135 7.30784,-3.89062 0.81799,-0.17567 1.20498,-0.20185 3.03572,-0.20538 1.84516,-0.004 2.22025,0.0207 3.11016,0.20094 2.46744,0.49981 4.46585,1.41417 6.42557,2.93999 2.05418,1.59937 3.37892,4.08134 3.9447,7.39067 0.16829,0.98429 0.35885,3.00891 0.35885,3.81249 v 0.42858 h -11.97309 -11.9731 l 0.0579,1.04911 c 0.21018,3.80999 0.8879,6.29323 2.23571,8.19196 1.14019,1.60624 3.36,2.87739 6.00983,3.44146 1.2677,0.26986 3.66304,0.33477 5.01123,0.13581 1.78214,-0.263 3.45622,-0.90868 4.61527,-1.78007 1.25097,-0.94049 2.81655,-2.84862 3.45804,-4.21465 l 0.25426,-0.54145 0.68324,0.24277 c 0.54987,0.19539 0.67774,0.27503 0.65511,0.40802 -0.0618,0.36332 -0.83565,1.81817 -1.36976,2.57531 -0.66153,0.93775 -2.45563,2.77295 -3.28962,3.36497 -1.62183,1.15127 -3.89046,1.89431 -6.10806,2.00056 -0.49548,0.0237 -1.04149,0.0531 -1.21337,0.0653 -0.17187,0.0122 -0.85491,-0.006 -1.51785,-0.0395 z m 9.53668,-17.17637 c 0.08,-2.31761 -0.46219,-4.80771 -1.38767,-6.37258 -0.48341,-0.81739 -1.61785,-2.15494 -2.31645,-2.73117 -0.75966,-0.62661 -1.99639,-1.24031 -2.97542,-1.4765 -1.6344,-0.3943 -3.87179,-0.30266 -5.4875,0.22476 -1.79219,0.58503 -3.49277,1.74875 -4.49899,3.07871 -0.95612,1.26374 -1.63564,2.85579 -1.9824,4.64463 -0.18658,0.96247 -0.3941,3.2516 -0.30749,3.39175 0.0365,0.059 3.26212,0.0817 9.49172,0.0667 l 9.43644,-0.0227 z"
       id="path125"
       inkscape:connector-curvature="0"
       transform="matrix(0.26458333,0,0,0.26458333,0,219)" />
    <path
       style="opacity:1;fill:#ffffff;fill-opacity:1;fill-rule:nonzero;stroke:#000000;stroke-width:0.03374578;stroke-linecap:square;stroke-linejoin:round;stroke-miterlimit:4;stroke-dasharray:none;stroke-opacity:1;paint-order:stroke fill markers"
       d="m 529.75627,289.60189 c -1.95083,-0.10235 -3.01651,-0.2873 -4.41002,-0.76537 -1.08659,-0.37278 -1.29989,-0.41719 -2.01855,-0.42033 -0.51415,-0.002 -0.96436,0.0494 -1.25,0.14337 -0.86089,0.28324 -1.7446,0.59932 -2.32678,0.83223 -0.32313,0.12927 -0.59842,0.22112 -0.61176,0.20409 -0.0764,-0.0976 -0.86224,-9.29994 -0.79887,-9.35544 0.0795,-0.0696 1.54967,-0.30741 1.59122,-0.25737 0.0129,0.0156 0.13151,0.40999 0.26352,0.87651 0.48055,1.69825 1.55108,3.51116 2.66523,4.51346 1.98296,1.78389 4.66291,2.66498 8.46245,2.78218 3.63073,0.112 5.96556,-0.42528 7.74244,-1.78163 1.48733,-1.13534 2.02874,-3.38231 1.23392,-5.12113 -0.37144,-0.8126 -1.85317,-2.22745 -2.86423,-2.73495 -0.47611,-0.23899 -3.47036,-1.24586 -5.53571,-1.8615 -1.91118,-0.56968 -7.53592,-2.66292 -8.61964,-3.20778 -1.33973,-0.67358 -2.3005,-1.48209 -2.96025,-2.49111 -0.65126,-0.99603 -0.8321,-1.67302 -0.82504,-3.08862 0.007,-1.32301 0.14196,-1.96081 0.6258,-2.9485 0.81585,-1.66544 2.24522,-2.81202 4.67575,-3.75069 2.95455,-1.14105 7.13308,-1.3565 10.21372,-0.52664 1.76595,0.47571 3.01681,0.69024 4.07716,0.69925 1.22144,0.0104 1.46443,-0.0615 2.34599,-0.69399 l 0.64856,-0.46532 0.57185,4.14056 c 0.45706,3.30941 0.54861,4.15493 0.45608,4.21212 -0.0637,0.0394 -0.36197,0.0987 -0.66288,0.13196 -0.30091,0.0332 -0.6375,0.0824 -0.74799,0.10926 -0.12464,0.0303 -0.2009,0.008 -0.2009,-0.0593 0,-0.21986 -0.7035,-1.59978 -1.16478,-2.28472 -0.65822,-0.97738 -1.64048,-1.9128 -2.92767,-2.78806 -1.26616,-0.86096 -2.24825,-1.3506 -3.32793,-1.65921 -3.12201,-0.89236 -8.00931,-0.18462 -9.79177,1.41796 -0.96002,0.86314 -1.36029,1.82041 -1.35773,3.24703 0.002,1.05697 0.16886,1.88142 0.53736,2.65354 0.23855,0.49983 0.35921,0.63867 0.80609,0.9275 0.66352,0.42885 1.46699,0.75136 2.56773,1.03068 0.47481,0.12049 1.98846,0.61925 3.36368,1.10837 1.37521,0.48912 3.12315,1.0544 3.88431,1.25617 1.89241,0.50165 4.14647,1.26842 5.02753,1.71023 1.16346,0.58343 1.93931,1.17396 3.07324,2.33918 1.65473,1.70039 1.95256,2.37513 1.87577,4.24966 -0.0765,1.86758 -0.63469,3.21266 -1.87854,4.52669 -1.87221,1.97786 -4.34534,2.89629 -8.49979,3.1565 -1.56426,0.098 -1.94277,0.0973 -3.92857,-0.007 z"
       id="path127"
       inkscape:connector-curvature="0"
       transform="matrix(0.26458333,0,0,0.26458333,0,219)" />
  </g>
</svg>
