<?xml version="1.0" encoding="UTF-8" standalone="no"?>
<!-- Created with Inkscape (http://www.inkscape.org/) -->

<svg
   xmlns:dc="http://purl.org/dc/elements/1.1/"
   xmlns:cc="http://creativecommons.org/ns#"
   xmlns:rdf="http://www.w3.org/1999/02/22-rdf-syntax-ns#"
   xmlns:svg="http://www.w3.org/2000/svg"
   xmlns="http://www.w3.org/2000/svg"
   xmlns:sodipodi="http://sodipodi.sourceforge.net/DTD/sodipodi-0.dtd"
   xmlns:inkscape="http://www.inkscape.org/namespaces/inkscape"
   width="145mm"
   height="78mm"
   viewBox="0 0 145 78"
   version="1.1"
   id="svg1624"
   inkscape:version="0.92.4 (5da689c313, 2019-01-14)"
   sodipodi:docname="medium_visonary_logo.svg">
  <defs
     id="defs1618" />
  <sodipodi:namedview
     id="base"
     pagecolor="#ffffff"
     bordercolor="#666666"
     borderopacity="1.0"
     inkscape:pageopacity="0.0"
     inkscape:pageshadow="2"
     inkscape:zoom="0.98994949"
     inkscape:cx="266.40834"
     inkscape:cy="96.733767"
     inkscape:document-units="mm"
     inkscape:current-layer="layer1"
     showgrid="false"
     inkscape:window-width="1213"
     inkscape:window-height="991"
     inkscape:window-x="697"
     inkscape:window-y="0"
     inkscape:window-maximized="0" />
  <metadata
     id="metadata1621">
    <rdf:RDF>
      <cc:Work
         rdf:about="">
        <dc:format>image/svg+xml</dc:format>
        <dc:type
           rdf:resource="http://purl.org/dc/dcmitype/StillImage" />
        <dc:title></dc:title>
      </cc:Work>
    </rdf:RDF>
  </metadata>
  <g
     inkscape:label="Layer 1"
     inkscape:groupmode="layer"
     id="layer1"
     transform="translate(0,-219)">
    <g
       id="g2395"
       transform="matrix(3.7641604,0,0,4.5099254,-124.45472,-732.49208)"
       style="fill:#8978a7;fill-opacity:1">
      <g
         id="g2349"
         transform="matrix(-1,0,0,1,79.948023,0)"
         style="fill:#8978a7;fill-opacity:1">
        <g
           id="g2335"
           transform="matrix(0.65829218,0,0,0.70044068,-82.467939,94.694399)"
           style="fill:#8978a7;fill-opacity:1">
          <path
             sodipodi:nodetypes="cccccc"
             inkscape:connector-curvature="0"
             id="path2333"
             d="m 193.10085,176.54406 0.78197,0.40813 c 0.43008,0.22448 0.77143,0.42553 0.75855,0.4468 l -2.88971,6.52249 -1.09645,-1.424 z"
             style="opacity:1;fill:#8978a7;fill-opacity:1;fill-rule:nonzero;stroke:none;stroke-width:2.44078112;stroke-miterlimit:4;stroke-dasharray:none" />
        </g>
        <path
           inkscape:connector-curvature="0"
           id="path2337"
           d="m 35.319328,216.81813 c -0.14593,-0.23044 -1.921,-3.40882 -1.90961,-3.41926 0.007,-0.006 0.75739,-0.48754 1.66841,-1.06997 l 1.65641,-1.05898 0.82406,1.46591 c 0.45323,0.80625 0.90153,1.6048 0.9962,1.77455 l 0.17214,0.30863 -1.62778,1.03944 c -0.89528,0.57169 -1.64643,1.04607 -1.66922,1.05418 -0.0228,0.008 -0.0726,-0.0344 -0.11061,-0.0945 z"
           style="opacity:1;fill:#8978a7;fill-opacity:1;fill-rule:nonzero;stroke:none;stroke-width:1.72589278;stroke-miterlimit:4;stroke-dasharray:none" />
        <path
           inkscape:connector-curvature="0"
           id="path2339"
           d="m 33.996412,212.5848 c 0,-0.10477 0.57018,-0.65196 0.85674,-0.82219 0.30907,-0.1836 0.87696,-0.38468 1.00752,-0.35674 0.0404,0.009 -0.34293,0.28148 -0.85185,0.6063 -1.00379,0.64068 -1.01241,0.64556 -1.01241,0.57263 z"
           style="opacity:1;fill:#8978a7;fill-opacity:1;fill-rule:nonzero;stroke:none;stroke-width:1.72589278;stroke-miterlimit:4;stroke-dasharray:none" />
        <path
           inkscape:connector-curvature="0"
           id="path2341"
           d="m 37.90917,219.98483 c -0.97807,-1.61251 -1.78744,-2.95629 -1.79858,-2.98616 -0.0167,-0.0448 0.68743,-0.51109 2.41115,-1.59689 l 0.19869,-0.12516 1.77957,2.8925 c 0.97876,1.59088 1.77957,2.90745 1.77957,2.92572 0,0.0183 -0.0506,0.0524 -0.11233,0.0759 -0.0618,0.0235 -0.645,0.42593 -1.29604,0.89432 l -1.1837,0.85161 z"
           style="opacity:1;fill:#8978a7;fill-opacity:1;fill-rule:nonzero;stroke:none;stroke-width:1.72589278;stroke-miterlimit:4;stroke-dasharray:none" />
        <path
           sodipodi:nodetypes="ccccc"
           inkscape:connector-curvature="0"
           id="path2343"
           d="m 44.176757,217.83071 0.26525,-0.28685 2.096353,1.179 -0.23162,0.29516 z"
           style="opacity:1;fill:#8978a7;fill-opacity:1;fill-rule:nonzero;stroke:none;stroke-width:1.72589278;stroke-miterlimit:4;stroke-dasharray:none" />
        <path
           sodipodi:nodetypes="ccccccc"
           inkscape:connector-curvature="0"
           id="path2345"
           d="m 41.51405,224.57721 -1.16712,-1.74122 0.81277,-0.56356 c 0.44702,-0.30995 0.8379,-0.5782 0.86864,-0.5961 0,0 2.354602,3.0829 2.39636,3.30707 0.004,0.0418 -1.68861,1.34715 -1.73345,1.33725 -0.006,-0.001 -0.53529,-0.78577 -1.1772,-1.74344 z"
           style="opacity:1;fill:#8978a7;fill-opacity:1;fill-rule:nonzero;stroke:none;stroke-width:1.72589278;stroke-miterlimit:4;stroke-dasharray:none" />
        <path
           inkscape:connector-curvature="0"
           id="path2347"
           d="m 42.10289,227.98967 c -0.0335,-0.0347 -0.0355,-0.0376 -0.20799,-0.30203 -0.14144,-0.21681 -0.17345,-0.26768 -0.17034,-0.27067 0.008,-0.007 4.0645,-2.80209 4.07892,-2.80996 0.0138,-0.008 0.0154,-0.008 0.0236,-0.004 0.005,0.002 0.0125,0.007 0.017,0.0109 0.005,0.004 0.0779,0.10695 0.16305,0.22957 0.15581,0.22435 0.16079,0.2323 0.15277,0.24376 -0.002,0.003 -4.0086,2.92841 -4.01903,2.93468 -0.003,0.002 -0.013,-0.006 -0.0381,-0.0325 z"
           style="opacity:1;fill:#8978a7;fill-opacity:1;fill-rule:nonzero;stroke:none;stroke-width:0.1078683;stroke-miterlimit:4;stroke-dasharray:none" />
      </g>
      <g
         id="g2379"
         transform="matrix(0.46996031,0,0,0.46094159,3.5513666,132.7471)"
         style="fill:#8978a7;fill-opacity:1">
        <g
           id="g2377"
           transform="matrix(1.3361347,0,0,1.3138716,-31.230927,-49.149723)"
           style="fill:#8978a7;fill-opacity:1">
          <path
             sodipodi:nodetypes="cccc"
             style="opacity:1;fill:#8978a7;fill-opacity:1;fill-rule:nonzero;stroke:none;stroke-width:2.44078112;stroke-miterlimit:4;stroke-dasharray:none"
             d="m 89.164583,191.43125 h 2.645834 l -1.322917,2.91042 z"
             id="path2351"
             inkscape:connector-curvature="0" />
          <g
             id="g2361"
             style="fill:#8978a7;fill-opacity:1">
            <path
               inkscape:connector-curvature="0"
               id="path2353"
               d="m 87.506517,188.33367 c -0.68591,-1.39885 -1.2451,-2.56398 -1.24263,-2.58917 0.002,-0.0252 0.38633,-0.36485 0.85303,-0.75479 l 0.84856,-0.70898 1.11931,2.27919 1.1193,2.27919 -0.001,1.01896 -10e-4,1.01897 h -0.724 -0.724 z"
               style="opacity:1;fill:#8978a7;fill-opacity:1;fill-rule:nonzero;stroke:none;stroke-width:2.44078112;stroke-miterlimit:4;stroke-dasharray:none" />
            <g
               id="g2359"
               style="fill:#8978a7;fill-opacity:1">
              <path
                 style="opacity:1;fill:#8978a7;fill-opacity:1;fill-rule:nonzero;stroke:none;stroke-width:2.44078112;stroke-miterlimit:4;stroke-dasharray:none"
                 d="m 85.630697,185.20735 c -0.0187,-0.0302 -0.3178,-0.7224 -0.6647,-1.53818 l -0.63074,-1.48324 1.0608,-0.89961 c 0.58344,-0.49479 1.08403,-0.89907 1.11242,-0.8984 0.0284,7.9e-4 0.34098,0.68143 0.69465,1.51282 l 0.64305,1.51162 -0.20874,0.1791 c -1.28808,1.10522 -1.97868,1.66131 -2.00674,1.61589 z"
                 id="path2355"
                 inkscape:connector-curvature="0" />
              <path
                 style="opacity:1;fill:#8978a7;fill-opacity:1;fill-rule:nonzero;stroke:none;stroke-width:0.86294639;stroke-miterlimit:4;stroke-dasharray:none"
                 d="m 84.666747,181.45575 c 0.23361,-0.42285 0.50313,-0.69965 0.847,-0.86987 0.23563,-0.11664 0.47165,-0.19115 0.45665,-0.14417 -0.0101,0.0317 -1.3418,1.16894 -1.372,1.1717 -0.0109,0.001 0.0199,-0.07 0.0683,-0.15766 z"
                 id="path2357"
                 inkscape:connector-curvature="0" />
            </g>
          </g>
          <path
             style="opacity:1;fill:#8978a7;fill-opacity:1;fill-rule:nonzero;stroke:none;stroke-width:2.44078112;stroke-miterlimit:4;stroke-dasharray:none"
             d="m 96.253567,188.35871 c -0.68591,-1.39885 -1.2451,-2.56398 -1.24263,-2.58917 0.002,-0.0252 0.38633,-0.36485 0.85303,-0.75479 l 0.84856,-0.70898 1.11931,2.27919 1.119297,2.27919 -10e-4,1.01896 -0.001,1.01897 h -0.724 -0.723997 z"
             id="path2363"
             inkscape:connector-curvature="0" />
          <path
             style="opacity:1;fill:#8978a7;fill-opacity:1;fill-rule:nonzero;stroke:none;stroke-width:2.44078112;stroke-miterlimit:4;stroke-dasharray:none"
             d="m 93.45166,188.35547 c 0.68591,-1.39885 1.2451,-2.56398 1.24263,-2.58917 -0.002,-0.0252 -0.38633,-0.36485 -0.85303,-0.75479 l -0.84856,-0.70898 -1.11931,2.27919 -1.119297,2.27919 0.001,1.01896 0.001,1.01897 h 0.724 0.723997 z"
             id="path2365"
             inkscape:connector-curvature="0" />
          <path
             style="opacity:1;fill:#8978a7;fill-opacity:1;fill-rule:nonzero;stroke:none;stroke-width:2.44078112;stroke-miterlimit:4;stroke-dasharray:none"
             d="m 87.506517,188.33367 c -0.68591,-1.39885 -1.2451,-2.56398 -1.24263,-2.58917 0.002,-0.0252 0.38633,-0.36485 0.85303,-0.75479 l 0.84856,-0.70898 1.11931,2.27919 1.1193,2.27919 -0.001,1.01896 -10e-4,1.01897 h -0.724 -0.724 z"
             id="path2367"
             inkscape:connector-curvature="0"
             transform="matrix(-1,0,0,1,189.68943,0.02593287)" />
          <path
             inkscape:connector-curvature="0"
             id="path2369"
             d="m 85.630697,185.20735 c -0.0187,-0.0302 -0.3178,-0.7224 -0.6647,-1.53818 l -0.63074,-1.48324 1.0608,-0.89961 c 0.58344,-0.49479 1.08403,-0.89907 1.11242,-0.8984 0.0284,7.9e-4 0.34098,0.68143 0.69465,1.51282 l 0.64305,1.51162 -0.20874,0.1791 c -1.28808,1.10522 -1.97868,1.66131 -2.00674,1.61589 z"
             style="opacity:1;fill:#8978a7;fill-opacity:1;fill-rule:nonzero;stroke:none;stroke-width:2.44078112;stroke-miterlimit:4;stroke-dasharray:none"
             transform="matrix(-1,0,0,1,189.68943,0.02593287)" />
          <path
             inkscape:connector-curvature="0"
             id="path2371"
             d="m 84.666747,181.45575 c 0.23361,-0.42285 0.50313,-0.69965 0.847,-0.86987 0.23563,-0.11664 0.47165,-0.19115 0.45665,-0.14417 -0.0101,0.0317 -1.3418,1.16894 -1.372,1.1717 -0.0109,0.001 0.0199,-0.07 0.0683,-0.15766 z"
             style="opacity:1;fill:#8978a7;fill-opacity:1;fill-rule:nonzero;stroke:none;stroke-width:0.86294639;stroke-miterlimit:4;stroke-dasharray:none"
             transform="matrix(-1,0,0,1,189.68943,0.02593287)" />
          <path
             inkscape:connector-curvature="0"
             id="path2373"
             d="m 97.895833,191.43125 h 2.645837 l -1.32292,2.91042 z"
             style="opacity:1;fill:#8978a7;fill-opacity:1;fill-rule:nonzero;stroke:none;stroke-width:2.44078112;stroke-miterlimit:4;stroke-dasharray:none"
             sodipodi:nodetypes="cccc" />
          <path
             sodipodi:nodetypes="cccccc"
             inkscape:connector-curvature="0"
             id="path2375"
             d="m 94.720832,184.81667 h 0.264583 l 0.264584,-0.26459 1.058334,-1.05833 h -2.910416 l 1.322915,1.32292"
             style="fill:#8978a7;fill-opacity:1;stroke:none;stroke-width:0.26458332px;stroke-linecap:butt;stroke-linejoin:miter;stroke-opacity:1" />
        </g>
      </g>
      <text
         transform="scale(1.171251,0.85378795)"
         id="text2383"
         y="267.08469"
         x="45.38184"
         style="font-style:normal;font-variant:normal;font-weight:normal;font-stretch:normal;font-size:4.53083611px;line-height:1.25;font-family:SimSun-ExtB;-inkscape-font-specification:SimSun-ExtB;letter-spacing:0px;word-spacing:0px;fill:#8978a7;fill-opacity:1;stroke:none;stroke-width:0.11327088"
         xml:space="preserve"><tspan
           style="font-style:normal;font-variant:normal;font-weight:normal;font-stretch:normal;font-family:SimSun-ExtB;-inkscape-font-specification:SimSun-ExtB;fill:#8978a7;fill-opacity:1;stroke-width:0.11327088"
           y="267.08469"
           x="45.38184"
           id="tspan2381"
           sodipodi:role="line">ebsites</tspan></text>
      <g
         id="g2393"
         transform="matrix(0.44187096,0,0,0.45251893,11.357655,164.837)"
         style="fill:#8978a7;fill-opacity:1">
        <g
           transform="rotate(66.053058,89.641028,132.55176)"
           id="g2391"
           style="fill:#8978a7;fill-opacity:1">
          <g
             id="g2385"
             style="fill:#8978a7;fill-opacity:1" />
          <text
             transform="rotate(-66.053057)"
             id="text2389"
             y="122.92387"
             x="-97.622696"
             style="font-style:normal;font-variant:normal;font-weight:normal;font-stretch:normal;font-size:10.58333302px;line-height:1.25;font-family:SimSun-ExtB;-inkscape-font-specification:SimSun-ExtB;letter-spacing:0px;word-spacing:0px;fill:#8978a7;fill-opacity:1;stroke:none;stroke-width:0.26458332"
             xml:space="preserve"><tspan
               style="font-style:normal;font-variant:normal;font-weight:normal;font-stretch:normal;font-family:SimSun-ExtB;-inkscape-font-specification:SimSun-ExtB;fill:#8978a7;fill-opacity:1;stroke-width:0.26458332"
               y="122.92387"
               x="-97.622696"
               id="tspan2387"
               sodipodi:role="line">isionary</tspan></text>
        </g>
      </g>
    </g>
  </g>
</svg>
